<svg  width="24" height="24" viewBox="0 0 24 24" fill='black' xmlns="http://www.w3.org/2000/svg" opacity='1'>
<g clip-path="url(#clip0_518_2)">
<path d="M8.58311e-07 12.966C8.2961e-07 13.2943 0.0646659 13.6194 0.190303 13.9227C0.315939 14.226 0.500087 14.5016 0.732234 14.7338C0.96438 14.9659 1.23998 15.1501 1.54329 15.2757C1.84661 15.4013 2.1717 15.466 2.5 15.466L8.811 15.466C8.85048 15.4661 8.88937 15.4755 8.9245 15.4935C8.95963 15.5115 8.99 15.5376 9.01312 15.5696C9.03624 15.6016 9.05145 15.6386 9.05751 15.6776C9.06358 15.7166 9.06032 15.7565 9.048 15.794C8.49592 17.1932 8.31674 18.7118 8.528 20.201C9.116 22.296 10.362 22.901 11.337 22.766C11.8159 22.6845 12.2487 22.4316 12.5547 22.0543C12.8608 21.6771 13.019 21.2014 13 20.716C13 17.97 15.129 14.97 17.034 13.655C17.1007 13.609 17.1552 13.5474 17.1928 13.4756C17.2305 13.4039 17.2501 13.324 17.25 13.243L17.25 3.127C17.25 3.01086 17.2096 2.89833 17.1357 2.80873C17.0618 2.71914 16.959 2.65806 16.845 2.636C16.488 2.567 16.164 2.501 15.858 2.436C14.5124 2.11542 13.1332 1.95729 11.75 1.965L5.25 1.965C3.293 1.965 3 3.065 3 3.715C2.99981 4.05977 3.0792 4.39993 3.232 4.709C2.70384 4.97658 2.30256 5.44174 2.11533 6.00344C1.92809 6.56514 1.97002 7.17803 2.232 7.709C1.86144 7.89725 1.5502 8.18439 1.33276 8.53862C1.11531 8.89285 1.00014 9.30035 1 9.716C0.999348 10.0906 1.09325 10.4593 1.273 10.788C0.886766 11.0056 0.565326 11.3219 0.341632 11.7047C0.117938 12.0874 3.29329e-05 12.5227 8.58311e-07 12.966Z" />
<path d="M18.75 13.216C18.75 13.4812 18.8554 13.7356 19.0429 13.9231C19.2304 14.1106 19.4848 14.216 19.75 14.216L23 14.216C23.2652 14.216 23.5196 14.1106 23.7071 13.9231C23.8946 13.7356 24 13.4812 24 13.216L24 2.216C24 1.95079 23.8946 1.69643 23.7071 1.5089C23.5196 1.32136 23.2652 1.216 23 1.216L19.75 1.216C19.4848 1.216 19.2304 1.32136 19.0429 1.5089C18.8554 1.69643 18.75 1.95079 18.75 2.216L18.75 13.216ZM20.25 3.966C20.25 3.81767 20.294 3.67266 20.3764 3.54933C20.4588 3.42599 20.5759 3.32986 20.713 3.27309C20.85 3.21633 21.0008 3.20148 21.1463 3.23042C21.2918 3.25935 21.4254 3.33079 21.5303 3.43567C21.6352 3.54056 21.7067 3.6742 21.7356 3.81969C21.7645 3.96517 21.7497 4.11597 21.6929 4.25302C21.6361 4.39006 21.54 4.50719 21.4167 4.58961C21.2933 4.67202 21.1483 4.716 21 4.716C20.8011 4.716 20.6103 4.63699 20.4697 4.49633C20.329 4.35568 20.25 4.16492 20.25 3.966Z" />
</g>
<defs>
<clipPath id="clip0_518_2">
<rect width="24" height="24" fill="white" transform="translate(24 24) rotate(-180)"/>
</clipPath>
</defs>
</svg>
