<?xml version="1.0" standalone="no"?>
<svg version="1.0" xmlns="http://www.w3.org/2000/svg"
 width="512.000000pt" height="512.000000pt" viewBox="0 0 512.000000 512.000000"
 preserveAspectRatio="xMidYMid meet">

<g transform="translate(0.000000,512.000000) scale(0.100000,-0.100000)"
fill="#3d5a80" stroke="none">
<path d="M1021 5103 c-24 -8 -63 -35 -86 -58 -117 -116 -96 -303 43 -395 l52
-34 0 -191 c1 -133 4 -195 13 -206 26 -34 54 -39 231 -39 l176 0 0 -148 0
-147 -46 -24 c-61 -33 -130 -112 -168 -191 -29 -61 -31 -74 -34 -202 l-4 -138
-348 0 -347 0 -31 49 c-57 93 -178 138 -284 107 -185 -53 -244 -288 -109 -424
47 -47 86 -64 158 -70 104 -8 199 42 244 130 l19 38 350 0 350 0 0 -255 0
-255 -355 0 c-297 0 -355 2 -355 14 0 26 -89 113 -132 131 -24 9 -68 17 -98
17 -99 0 -177 -46 -225 -133 -72 -133 -13 -295 130 -355 51 -21 139 -20 193 1
43 18 132 105 132 131 0 12 58 14 355 14 l355 0 0 -255 0 -255 -350 0 -350 0
-19 38 c-45 88 -140 138 -244 130 -72 -6 -111 -23 -158 -70 -135 -136 -76
-371 109 -424 106 -31 227 14 284 107 l31 49 347 0 348 0 4 -137 c3 -129 5
-142 34 -203 38 -79 107 -158 168 -191 l46 -24 0 -147 0 -148 -176 0 c-177 0
-205 -5 -231 -39 -9 -11 -12 -73 -13 -206 l0 -191 -52 -34 c-139 -92 -160
-279 -43 -395 134 -134 366 -74 420 109 19 62 19 80 -1 145 -17 59 -77 131
-124 151 l-30 12 0 139 0 139 184 0 c249 0 230 -19 236 232 l5 193 82 3 82 3
3 -352 3 -351 -36 -18 c-43 -23 -96 -81 -116 -128 -18 -44 -19 -124 -3 -179
37 -121 181 -198 307 -164 138 37 225 212 170 342 -20 49 -73 106 -119 130
-28 14 -38 25 -34 35 3 9 6 166 6 350 l0 334 253 -2 252 -3 3 -345 2 -346 -52
-34 c-139 -92 -160 -279 -43 -395 134 -134 366 -74 420 109 19 62 19 80 -1
145 -17 59 -77 131 -124 151 l-30 12 0 354 0 354 253 -2 252 -3 2 -350 3 -350
-40 -18 c-73 -34 -129 -127 -130 -218 0 -96 47 -178 132 -225 45 -24 64 -29
123 -29 48 0 81 6 105 19 163 85 198 286 73 411 -24 25 -55 48 -69 51 l-24 6
0 354 0 354 85 0 85 0 0 -186 0 -186 29 -29 29 -29 186 0 186 0 0 -133 0 -133
-52 -34 c-139 -92 -160 -279 -43 -395 134 -134 366 -74 420 109 19 62 19 80
-1 145 -17 59 -77 131 -124 151 l-29 12 -3 199 c-4 263 15 243 -238 247 l-190
3 0 144 0 143 43 25 c148 88 217 232 217 455 l0 82 349 0 349 0 12 -30 c20
-48 96 -108 158 -126 232 -68 416 205 269 398 -72 95 -207 126 -315 72 -47
-23 -88 -65 -118 -119 -11 -19 -23 -20 -358 -23 l-346 -2 0 255 0 255 348 0
349 0 11 -24 c36 -80 136 -139 232 -139 229 2 337 291 165 442 -52 45 -98 63
-165 64 -96 0 -196 -59 -232 -139 l-11 -24 -349 0 -348 0 0 255 0 255 346 -2
c335 -3 347 -4 358 -23 75 -135 220 -184 347 -117 153 80 185 276 66 400 -68
71 -157 95 -249 68 -62 -18 -138 -78 -158 -126 l-12 -30 -349 0 -349 0 0 83
c0 222 -69 366 -217 454 l-43 25 0 143 0 144 190 3 c253 4 234 -16 238 247 l3
199 29 12 c47 20 107 92 124 151 20 65 20 83 1 145 -54 183 -286 243 -420 109
-117 -116 -96 -303 43 -395 l52 -34 0 -133 0 -133 -186 0 -186 0 -29 -29 -29
-29 0 -186 0 -186 -85 0 -85 0 0 354 0 354 24 6 c14 3 45 26 69 51 125 125 90
326 -73 411 -24 13 -57 19 -105 19 -59 0 -78 -5 -123 -29 -85 -47 -132 -129
-132 -225 1 -91 57 -184 130 -218 l40 -18 -3 -350 -2 -350 -252 -3 -253 -2 0
354 0 354 30 12 c47 20 107 92 124 151 20 65 20 83 1 145 -54 183 -286 243
-420 109 -117 -116 -96 -303 43 -395 l52 -34 -2 -346 -3 -345 -252 -3 -253 -2
0 334 c0 184 -3 341 -6 350 -4 10 6 21 34 35 123 63 169 212 106 339 -83 166
-304 190 -422 46 -52 -63 -70 -181 -39 -256 20 -47 73 -105 116 -128 l36 -18
-3 -351 -3 -352 -82 3 -82 3 -5 193 c-6 251 13 232 -236 232 l-184 0 0 139 0
139 30 12 c68 28 140 144 140 225 0 81 -67 188 -143 227 -55 27 -148 33 -206
11z m124 -165 c80 -36 55 -158 -32 -158 -90 0 -115 126 -32 159 32 13 34 13
64 -1z m774 -3 c33 -16 41 -33 41 -80 0 -40 -38 -75 -80 -75 -86 0 -112 116
-35 158 27 15 41 15 74 -3z m676 3 c80 -36 55 -158 -32 -158 -90 0 -115 126
-32 159 32 13 34 13 64 -1z m713 -24 c70 -79 -47 -182 -122 -108 -30 31 -34
69 -10 102 33 48 92 50 132 6z m737 24 c80 -36 55 -158 -32 -158 -90 0 -115
126 -32 159 32 13 34 13 64 -1z m-463 -1198 c53 -15 133 -91 155 -148 17 -44
18 -103 18 -1032 0 -929 -1 -988 -18 -1032 -22 -57 -102 -133 -155 -148 -24
-6 -385 -10 -1027 -10 l-990 0 -50 24 c-60 28 -97 66 -124 126 -20 44 -21 60
-21 1040 0 980 1 996 21 1040 27 60 64 98 124 126 l50 24 990 0 c642 0 1003
-4 1027 -10z m-3292 -420 c22 0 50 -46 50 -81 0 -46 -36 -79 -85 -79 -82 0
-107 122 -32 155 18 8 38 12 45 10 8 -3 18 -5 22 -5z m4638 -26 c12 -14 22
-34 22 -45 0 -28 -26 -75 -45 -83 -75 -29 -151 47 -114 113 31 55 95 62 137
15z m-4611 -676 c51 -48 15 -138 -56 -138 -47 0 -81 32 -81 79 0 72 84 109
137 59z m4608 -3 c52 -51 15 -135 -60 -135 -46 0 -85 36 -85 80 0 71 94 107
145 55z m-4611 -676 c20 -16 26 -29 26 -57 -1 -68 -54 -103 -115 -78 -53 22
-64 89 -22 134 26 28 75 29 111 1z m4591 15 c19 -8 45 -55 45 -83 0 -11 -11
-32 -24 -47 -62 -73 -179 5 -134 89 22 42 67 58 113 41z m-3738 -1636 c30 -34
36 -63 19 -96 -41 -79 -155 -53 -156 36 0 71 91 110 137 60z m767 1 c28 -22
36 -72 16 -108 -16 -31 -65 -46 -100 -31 -37 15 -50 37 -50 84 0 41 37 76 80
76 15 0 39 -9 54 -21z m683 -1 c30 -34 36 -63 19 -96 -41 -79 -155 -53 -156
36 0 71 91 110 137 60z m674 9 c43 -33 49 -84 15 -123 -48 -57 -146 -20 -146
55 0 60 85 104 131 68z m776 -9 c30 -34 36 -63 19 -96 -41 -79 -155 -53 -156
36 0 71 91 110 137 60z"/>
<path d="M1735 3384 l-25 -27 0 -797 0 -797 25 -27 24 -26 800 0 800 0 28 24
28 24 0 802 0 802 -28 24 -28 24 -800 0 -800 0 -24 -26z m1505 -824 l0 -680
-680 0 -680 0 0 680 0 680 680 0 680 0 0 -680z"/>
<path d="M2050 2560 l0 -510 340 0 340 0 0 85 0 85 -255 0 -255 0 0 425 0 425
-85 0 -85 0 0 -510z"/>
<path d="M2390 2985 l0 -85 255 0 255 0 0 -425 0 -425 85 0 85 0 0 510 0 510
-340 0 -340 0 0 -85z"/>
</g>
</svg>